<?xml version="1.0" encoding="UTF-8" standalone="no"?>
<!DOCTYPE svg PUBLIC "-//W3C//DTD SVG 1.1//EN" "http://www.w3.org/Graphics/SVG/1.1/DTD/svg11.dtd">
<svg width="100%" height="100%" viewBox="0 0 1189 718" version="1.1" xmlns="http://www.w3.org/2000/svg" xmlns:xlink="http://www.w3.org/1999/xlink" xml:space="preserve" xmlns:serif="http://www.serif.com/" style="fill-rule:evenodd;clip-rule:evenodd;stroke-linejoin:round;stroke-miterlimit:2;">
    <g transform="matrix(1,0,0,1,-5.73412,-91)">
        <path d="M189.734,316L189.734,352C221.003,352 246.734,377.731 246.734,409C246.734,440.269 221.003,466 189.734,466L189.734,502L375.734,502L375.734,316L189.734,316Z" style="fill:rgb(242,242,242);fill-rule:nonzero;"/>
    </g>
    <circle cx="184" cy="318" r="45" style="fill:rgb(242,242,242);"/>
    <path d="M866,363.051L793,318.055L793,666L866,666L866,363.051Z" style="fill:rgb(242,242,242);fill-rule:nonzero;"/>
    <path d="M681,666L754,666L754,294.016L681,249.02L681,666Z" style="fill:rgb(242,242,242);fill-rule:nonzero;"/>
    <path d="M642,224.98L277,0L277,203L394,203L394,437L277,437L277,666L642,666L642,224.98Z" style="fill:rgb(242,242,242);fill-rule:nonzero;"/>
    <path d="M905,387.09L905,666L943,666L1046,474L905,387.09Z" style="fill:rgb(242,242,242);fill-rule:nonzero;"/>
    <g transform="matrix(1,0,0,1,-5.73412,-91)">
        <path d="M1052.55,623.891C991.968,669.175 974.887,748.732 974.887,748.732C974.887,748.732 1056.03,754.87 1116.61,709.586C1177.18,664.303 1194.27,584.746 1194.27,584.746C1194.27,584.746 1113.13,578.608 1052.55,623.891Z" style="fill:rgb(63,61,86);fill-rule:nonzero;"/>
    </g>
    <g transform="matrix(1,0,0,1,-5.73412,-91)">
        <path d="M974.934,747.964C974.934,747.964 974.045,747.468 972.436,746.479C971.152,745.69 969.391,744.589 967.262,743.183C948.225,730.64 898.911,693.745 878.683,636.819C853.377,565.545 883.259,489.861 883.259,489.861C883.259,489.861 948.445,526.507 976.136,592.33C977.342,595.165 978.459,598.058 979.51,601.006C1001.53,663.021 981.767,728.374 976.263,744.304C975.435,746.689 974.934,747.964 974.934,747.964Z" style="fill:rgb(255,99,99);fill-rule:nonzero;"/>
    </g>
    <g transform="matrix(1,0,0,1,-5.73412,-91)">
        <path d="M975.229,750.214L974.301,749.541C973.638,749.063 907.89,700.759 890.996,627.543C874.102,554.327 912.037,482.1 912.423,481.379L912.963,480.367L913.891,481.04C914.554,481.519 980.302,529.822 997.195,603.038C1014.09,676.254 976.154,748.481 975.769,749.202L975.229,750.214ZM913.654,483.363C909.095,492.46 877.322,559.392 892.945,627.094C908.566,694.796 966.453,741.038 974.537,747.218C979.097,738.121 1010.87,671.189 995.246,603.487C979.625,535.785 921.738,489.543 913.654,483.363Z" style="fill:rgb(63,61,86);fill-rule:nonzero;"/>
    </g>
    <g transform="matrix(1,0,0,1,-5.73412,-91)">
        <path d="M976.263,744.304C974.786,745.164 973.495,745.888 972.436,746.479C970.1,747.755 968.805,748.397 968.805,748.397C968.805,748.397 968.192,746.555 967.262,743.183C962.133,724.738 947.45,660.454 972.024,601.409C973.317,598.316 974.687,595.29 976.136,592.33C977.342,595.165 978.459,598.058 979.51,601.006C1001.53,663.021 981.767,728.374 976.263,744.304Z" style="fill-opacity:0.1;fill-rule:nonzero;"/>
    </g>
    <g transform="matrix(1,0,0,1,-5.73412,-91)">
        <path d="M1077.84,645.081C1048.78,714.913 975.841,750.975 975.841,750.975C975.841,750.975 950.001,673.817 979.053,603.985C1008.11,534.153 1081.05,498.092 1081.05,498.092C1081.05,498.092 1106.89,575.25 1077.84,645.081Z" style="fill:rgb(255,99,99);fill-rule:nonzero;"/>
    </g>
    <g transform="matrix(0.386834,-0.922149,0.922149,0.386834,48.5183,1240.72)">
        <rect x="894.17" y="624.063" width="268.701" height="1.999" style="fill:rgb(63,61,86);"/>
    </g>
    <g transform="matrix(1,0,0,1,-5.73412,-91)">
        <path d="M1183.23,771.491C1183.23,780.856 1129.37,789.422 1040.3,795.997C1024.11,797.188 1006.75,798.314 988.349,799.374C972.439,800.288 955.77,801.147 938.34,801.952C921.448,802.719 903.911,803.431 885.728,804.089C828.292,806.178 764.806,807.678 697.358,808.429C680.993,808.608 664.405,808.75 647.593,808.853C630.093,808.951 612.39,809 594.484,809C269.324,809 5.734,792.212 5.734,771.491C5.734,750.771 269.324,733.983 594.484,733.983C734.467,733.983 863.029,737.099 964.069,742.287C967.788,742.483 971.47,742.673 975.115,742.858C975.136,742.871 975.161,742.877 975.185,742.875C1102.46,749.76 1183.23,760.022 1183.23,771.491Z" style="fill:rgb(63,61,86);fill-rule:nonzero;"/>
    </g>
    <g transform="matrix(1,0,0,1,-5.73412,-91)">
        <path d="M1183.23,771.491C1183.23,780.856 1129.37,789.422 1040.3,795.997C1024.11,797.188 1006.75,798.314 988.349,799.374C972.439,800.288 955.77,801.147 938.34,801.952C921.448,802.719 903.911,803.431 885.728,804.089C828.292,806.178 764.806,807.678 697.358,808.429C680.993,808.608 664.405,808.75 647.593,808.853C630.093,808.951 612.39,809 594.484,809C269.324,809 5.734,792.212 5.734,771.491C5.734,750.771 269.324,733.983 594.484,733.983C734.467,733.983 863.029,737.099 964.069,742.287C967.788,742.483 971.47,742.673 975.115,742.858C975.136,742.871 975.161,742.877 975.185,742.875C1102.46,749.76 1183.23,760.022 1183.23,771.491Z" style="fill-opacity:0.15;fill-rule:nonzero;"/>
    </g>
    <g transform="matrix(1,0,0,1,-5.73412,-91)">
        <path d="M1137.98,764.89C1137.98,772.72 1087.76,779.88 1004.73,785.38C989.644,786.37 973.454,787.31 956.304,788.2C941.474,788.96 925.934,789.677 909.684,790.35C893.934,791 877.584,791.597 860.634,792.14C807.084,793.89 747.894,795.14 685.014,795.77C669.764,795.92 654.301,796.037 638.624,796.12C622.304,796.21 605.801,796.253 589.114,796.25C285.974,796.25 40.234,782.21 40.234,764.89C40.234,747.57 285.974,733.53 589.114,733.53C656.144,733.53 720.364,734.22 779.744,735.48L779.894,735.48C836.054,736.67 887.884,738.37 933.664,740.48C937.134,740.64 940.567,740.797 943.964,740.95C943.984,740.966 944.009,740.973 944.034,740.97C965.004,741.99 984.624,743.09 1002.7,744.27C1002.9,744.28 1003.1,744.3 1003.3,744.31C1087.19,749.82 1137.98,757.01 1137.98,764.89Z" style="fill:rgb(63,61,86);fill-rule:nonzero;"/>
    </g>
    <g transform="matrix(1,0,0,1,-5.73412,-91)">
        <path d="M1002.7,744.27C995.274,792.58 948.424,776.39 891.734,776.39C831.844,776.39 782.944,794.46 779.894,735.48C836.054,736.67 887.884,738.37 933.664,740.48C937.134,740.64 940.567,740.797 943.964,740.95C943.984,740.966 944.009,740.973 944.034,740.97C965.004,741.99 984.624,743.09 1002.7,744.27Z" style="fill-opacity:0.1;fill-rule:nonzero;"/>
    </g>
    <g transform="matrix(1,0,0,1,-5.73412,-91)">
        <path d="M323.011,729.573C323.011,746.99 312.658,753.071 299.886,753.071C299.59,753.071 299.294,753.067 299,753.06C298.409,753.048 297.821,753.02 297.242,752.979C285.715,752.164 276.76,745.77 276.76,729.573C276.76,712.814 298.177,691.664 299.79,690.095L299.792,690.093C299.854,690.032 299.886,690.002 299.886,690.002C299.886,690.002 323.011,712.159 323.011,729.573Z" style="fill:rgb(255,99,99);fill-rule:nonzero;"/>
    </g>
    <g transform="matrix(1,0,0,1,-5.73412,-91)">
        <path d="M299.043,750.406L307.501,738.589L299.021,751.704L299,753.06C298.409,753.048 297.821,753.02 297.242,752.979L298.153,735.556L298.147,735.42L298.162,735.397L298.249,733.749L289.748,720.602L298.274,732.515L298.296,732.864L298.983,719.7L291.706,706.114L299.073,717.39L299.79,690.095L299.792,690.002L299.792,690.093L299.673,711.616L306.918,703.083L299.643,713.47L299.451,725.257L306.218,713.944L299.424,726.991L299.317,733.545L309.136,717.799L299.279,735.831L299.043,750.406Z" style="fill:rgb(63,61,86);fill-rule:nonzero;"/>
    </g>
    <g transform="matrix(1,0,0,1,-5.73412,-91)">
        <path d="M779.734,717.393C779.734,651.119 829.878,597.393 891.734,597.393C953.59,597.393 1003.73,651.119 1003.73,717.393C1003.73,783.668 953.59,764.393 891.734,764.393C829.878,764.393 779.734,783.668 779.734,717.393Z" style="fill:rgb(63,61,86);fill-rule:nonzero;"/>
    </g>
    <rect x="151.384" y="547.331" width="2" height="135.181" style="fill:rgb(63,61,86);"/>
    <circle cx="152.384" cy="547.331" r="19.116" style="fill:rgb(63,61,86);"/>
    <g transform="matrix(1,0,0,1,-5.73412,-91)">
        <path d="M158.118,721.646C158.118,721.646 155.387,662.91 99.403,669.737" style="fill:rgb(63,61,86);fill-rule:nonzero;"/>
    </g>
    <g transform="matrix(1,0,0,1,-5.73412,-91)">
        <path d="M714.748,660.574C715.247,662.339 715.804,664.091 716.399,665.832C713.729,663.207 711.109,660.512 708.439,657.903C709.51,658.237 710.578,658.57 711.588,658.966C712.689,659.403 713.747,659.941 714.748,660.574ZM701.816,651.809C686.081,638.127 667.848,627.535 651.723,614.271C660.529,618.603 669.094,623.651 677.591,628.491C687.669,634.233 697.867,639.751 708.185,645.046C706.504,647.679 704.343,649.974 701.816,651.809ZM708.546,617.358C708.797,617.102 709.048,616.844 709.3,616.585C709.307,618.529 709.322,620.346 709.345,621.996C707.935,621.529 706.529,621.049 705.127,620.557C706.333,619.564 707.475,618.495 708.546,617.358ZM569.941,654.398C576.425,647.074 582.058,639.039 586.731,630.446C592.978,641.359 603.129,649.229 611.764,658.369C597.852,656.533 583.919,655.017 569.941,654.398Z" style="fill:url(#_Linear1);fill-rule:nonzero;"/>
    </g>
    <g transform="matrix(1,0,0,1,-5.73412,-91)">
        <path d="M123.011,755.573C123.011,772.99 112.658,779.071 99.886,779.071C99.59,779.071 99.294,779.067 99,779.06C98.408,779.048 97.821,779.02 97.242,778.979C85.715,778.164 76.76,771.77 76.76,755.573C76.76,738.814 98.177,717.664 99.79,716.095L99.792,716.093C99.854,716.032 99.886,716.002 99.886,716.002C99.886,716.002 123.011,738.159 123.011,755.573Z" style="fill:rgb(255,99,99);fill-rule:nonzero;"/>
    </g>
    <g transform="matrix(1,0,0,1,-5.73412,-91)">
        <path d="M99.043,776.406L107.501,764.589L99.021,777.704L99,779.06C98.408,779.048 97.821,779.02 97.242,778.979L98.153,761.556L98.147,761.42L98.162,761.397L98.249,759.749L89.748,746.602L98.274,758.515L98.296,758.864L98.983,745.7L91.706,732.114L99.073,743.39L99.79,716.095L99.792,716.002L99.792,716.093L99.673,737.616L106.918,729.083L99.643,739.47L99.451,751.257L106.218,739.944L99.424,752.991L99.317,759.545L109.136,743.799L99.279,761.831L99.043,776.406Z" style="fill:rgb(63,61,86);fill-rule:nonzero;"/>
    </g>
    <circle cx="129" cy="516" r="10" style="fill:rgb(255,99,99);"/>
    <g transform="matrix(1,0,0,1,-5.73412,-91)">
        <path d="M777.722,467.031C777.722,467.031 814,459 818,491C822,523 798.734,529.04 798.734,529.04L784,533L727,518L735,495L777.722,467.031Z" style="fill:rgb(47,46,65);fill-rule:nonzero;"/>
    </g>
    <circle cx="758.915" cy="328.774" r="49.023" style="fill:rgb(47,46,65);"/>
    <path d="M586.65,430.572L596.611,432.575L630.477,482.652L615.536,484.655L586.65,430.572Z" style="fill:rgb(47,46,65);fill-rule:nonzero;"/>
    <g transform="matrix(1,0,0,1,-5.73412,-91)">
        <path d="M351.456,724.748C354.141,733.587 357.449,742.224 361.355,750.596C372.58,748.247 383.624,745.1 394.402,741.18C394.734,741.059 388.221,732.54 387.537,731.844C384.956,729.218 381.616,726.15 378.204,724.666C374.765,723.169 370.527,724.311 366.845,724.499C361.72,724.761 356.591,724.844 351.456,724.748Z" style="fill:rgb(251,190,190);fill-rule:nonzero;"/>
    </g>
    <g transform="matrix(1,0,0,1,-5.73412,-91)">
        <path d="M378.263,738.126C372.649,736.369 369.237,730.719 366.953,725.271C364.67,719.823 362.828,713.882 358.497,709.884C356.837,709.963 355.5,711.312 354.679,712.764C353.858,714.217 353.369,715.854 352.42,717.225C350.614,719.835 347.439,721.097 345.168,723.31C342.787,725.63 341.485,728.913 339.021,731.144C335.925,733.945 331.549,734.641 327.487,735.567C321.206,737.002 315.138,739.252 309.439,742.259C307.34,743.524 305.095,744.53 302.753,745.255C300.176,745.75 297.538,745.838 294.934,745.516L276.977,744.237C275.379,744.031 273.757,744.102 272.183,744.446C268.492,745.483 266.2,749.603 266.471,753.447C266.742,757.291 269.134,760.736 272.154,763.109C275.279,765.345 278.728,767.093 282.38,768.29C298.023,774.195 314.127,778.795 330.528,782.044L330.537,785.598C341.941,791.206 354.481,794.126 367.189,794.132C368.129,794.203 369.072,794.039 369.933,793.657C371.193,792.972 371.776,791.5 372.243,790.139C376.551,777.54 379.072,764.399 379.732,751.101C380.051,747.729 379.79,744.328 378.959,741.045C377.981,737.812 381.349,739.171 378.233,737.905" style="fill:rgb(47,46,65);fill-rule:nonzero;"/>
    </g>
    <g transform="matrix(1,0,0,1,-5.73412,-91)">
        <path d="M722.668,670.43C669.428,673.618 616.807,658.035 563.499,656.369C556.871,656.162 550.172,656.177 543.701,657.631C536.855,659.168 530.473,662.266 524.108,665.227C495.517,678.53 465.939,689.548 436.397,700.551L402.462,713.191C395.68,715.717 388.653,718.282 381.435,717.841C378.199,717.643 374.227,717.153 372.406,719.85C366.886,728.029 369.494,740.046 373.142,749.225C374.326,752.204 376.329,755.419 379.502,755.758C381.736,755.997 383.813,754.704 385.983,754.122C392.161,752.468 398.319,756.623 404.676,757.299C412.53,758.135 419.823,753.661 427.235,750.921C439.53,746.377 452.973,746.52 465.895,744.368C487.564,740.759 507.647,730.698 526.421,719.235C533.57,714.87 540.803,710.194 549.015,708.597C558.457,706.761 568.156,709.194 577.413,711.813C599.489,718.06 621.221,725.46 642.52,733.984C653.735,738.471 664.87,743.284 676.538,746.389C701.775,753.033 728.484,751.475 752.778,741.943C761.299,738.576 770.559,732.622 771.047,723.428C771.325,718.186 767.26,713.568 764.544,709.085C762.801,706.21 761.058,703.334 759.161,700.56C749.98,687.139 738.839,669.462 722.668,670.43Z" style="fill:rgb(47,46,65);fill-rule:nonzero;"/>
    </g>
    <g transform="matrix(1,0,0,1,-5.73412,-91)">
        <path d="M722.668,670.43C669.428,673.618 616.807,658.035 563.499,656.369C556.871,656.162 550.172,656.177 543.701,657.631C536.855,659.168 530.473,662.266 524.108,665.227C495.517,678.53 465.939,689.548 436.397,700.551L402.462,713.191C395.68,715.717 388.653,718.282 381.435,717.841C378.199,717.643 374.227,717.153 372.406,719.85C366.886,728.029 369.494,740.046 373.142,749.225C374.326,752.204 376.329,755.419 379.502,755.758C381.736,755.997 383.813,754.704 385.983,754.122C392.161,752.468 398.319,756.623 404.676,757.299C412.53,758.135 419.823,753.661 427.235,750.921C439.53,746.377 452.973,746.52 465.895,744.368C487.564,740.759 507.647,730.698 526.421,719.235C533.57,714.87 540.803,710.194 549.015,708.597C558.457,706.761 568.156,709.194 577.413,711.813C599.489,718.06 621.221,725.46 642.52,733.984C653.735,738.471 664.87,743.284 676.538,746.389C701.775,753.033 728.484,751.475 752.778,741.943C761.299,738.576 770.559,732.622 771.047,723.428C771.325,718.186 767.26,713.568 764.544,709.085C762.801,706.21 761.058,703.334 759.161,700.56C749.98,687.139 738.839,669.462 722.668,670.43Z" style="fill-opacity:0.1;fill-rule:nonzero;"/>
    </g>
    <g transform="matrix(1,0,0,1,-5.73412,-91)">
        <path d="M453.673,727.34C462.007,730.184 470.414,732.799 478.894,735.185C483.64,727.391 492.52,721.968 494.544,713.059C494.67,712.671 494.67,712.253 494.546,711.865C494.329,711.484 493.994,711.184 493.591,711.011C487.517,707.646 480.772,705.67 473.843,705.225C468.37,704.879 465.873,710.592 463.392,714.608C462.388,716.234 455.903,728.101 453.673,727.34Z" style="fill:rgb(251,190,190);fill-rule:nonzero;"/>
    </g>
    <g transform="matrix(1,0,0,1,-5.73412,-91)">
        <path d="M465.355,721.651C460.433,720.62 455.616,717.974 453.104,713.596C451.927,711.544 450.674,708.779 448.324,708.934C446.142,709.078 445.14,711.681 444.649,713.823C442.809,721.845 441.003,729.931 437.775,737.498C434.548,745.064 429.774,752.167 423.04,756.851C419.952,758.999 416.509,760.603 413.491,762.849C410.778,764.867 408.414,767.397 405.418,768.958C403.413,769.877 401.344,770.648 399.227,771.267C396.112,772.352 393.136,773.8 390.361,775.582C387.92,777 385.851,778.977 384.323,781.351C382.8,783.781 382.612,786.825 383.826,789.424C385.126,791.554 387.279,793.029 389.735,793.471C392.162,793.889 394.636,793.951 397.08,793.655C406.787,792.94 416.483,792.075 426.178,791.211C430.28,790.947 434.356,790.38 438.374,789.515C440.498,789.003 442.579,788.324 444.695,787.779C448.321,786.844 452.038,786.303 455.78,786.164C456.867,786.072 457.962,786.172 459.015,786.46C461.261,787.194 462.855,789.428 465.173,789.882C466.66,790.024 468.16,789.823 469.558,789.296C476.543,787.385 483.883,787.437 491.112,787.047C494.297,786.875 498.025,786.27 499.486,783.419C501.308,779.864 498.287,775.888 497.083,772.076C496.482,769.64 496.147,767.146 496.084,764.638C495.528,758.44 493.709,752.421 490.737,746.954C488.266,742.416 484.893,737.399 486.629,732.53C487.218,730.877 488.39,729.339 488.274,727.587C487.762,719.895 469.817,722.587 465.355,721.651Z" style="fill:rgb(47,46,65);fill-rule:nonzero;"/>
    </g>
    <g transform="matrix(1,0,0,1,-5.73412,-91)">
        <path d="M642.828,585.017C633.397,580.861 625.834,573.35 621.615,563.946C620.726,561.925 619.995,559.814 619.139,557.773C616.347,550.994 612.005,544.964 606.461,540.167C605.075,538.991 603.448,537.869 601.755,538.176C600.129,538.472 598.851,540.08 598.293,541.883C597.816,543.74 597.697,545.671 597.942,547.572C598.415,552.054 599.186,556.499 600.249,560.879L602.829,572.635C603.148,574.443 603.687,576.205 604.435,577.883C605.548,579.861 607.016,581.618 608.766,583.064C611.122,585.235 613.518,587.348 615.951,589.403C619.33,592.645 623.739,594.606 628.41,594.943C638.983,596.903 649.736,599.727 658.658,606.627C658.559,606.551 658.62,598.742 658.466,597.847C658.058,595.481 657.739,593.138 656.2,591.539C652.741,587.945 647.042,586.89 642.828,585.017Z" style="fill:rgb(251,190,190);fill-rule:nonzero;"/>
    </g>
    <g transform="matrix(1,0,0,1,-5.73412,-91)">
        <path d="M642.828,585.017C633.397,580.861 625.834,573.35 621.615,563.946C620.726,561.925 619.995,559.814 619.139,557.773C616.347,550.994 612.005,544.964 606.461,540.167C605.075,538.991 603.448,537.869 601.755,538.176C600.129,538.472 598.851,540.08 598.293,541.883C597.816,543.74 597.697,545.671 597.942,547.572C598.415,552.054 599.186,556.499 600.249,560.879L602.829,572.635C603.148,574.443 603.687,576.205 604.435,577.883C605.548,579.861 607.016,581.618 608.766,583.064C611.122,585.235 613.518,587.348 615.951,589.403C619.33,592.645 623.739,594.606 628.41,594.943C638.983,596.903 649.736,599.727 658.658,606.627C658.559,606.551 658.62,598.742 658.466,597.847C658.058,595.481 657.739,593.138 656.2,591.539C652.741,587.945 647.042,586.89 642.828,585.017Z" style="fill-opacity:0.1;fill-rule:nonzero;"/>
    </g>
    <ellipse cx="745.521" cy="391.011" rx="12.949" ry="13.02" style="fill:rgb(47,46,65);"/>
    <g transform="matrix(1,0,0,1,-5.73412,-91)">
        <path d="M743.24,474.145C739.725,473.755 735.82,473.466 733.004,475.616C731.51,476.937 730.315,478.564 729.502,480.385C726.794,485.468 724.125,490.647 722.762,496.248C721.606,501 721.415,505.97 719.983,510.645C717.328,519.319 710.525,526.639 709.747,535.681C709.4,539.727 710.077,544.464 707.125,547.236C706.396,547.849 705.618,548.401 704.798,548.886C702.752,550.257 701.015,552.042 699.702,554.127C698.597,555.882 697.746,557.899 696.082,559.132C693.449,561.084 689.077,560.885 687.779,563.904C686.445,567.007 689.83,570.46 689.046,573.746C688.408,576.423 685.423,577.65 683.368,579.469C680.735,581.799 679.531,585.315 678.434,588.665C669.673,590.323 660.612,588.063 653.655,582.486C657.27,591.388 657.348,601.214 657.505,610.829C657.556,613.948 657.459,617.448 655.232,619.621C665.541,619.841 675.595,622.634 685.655,624.908C690.052,625.902 694.825,626.764 698.925,624.884C701.226,623.652 703.285,622.014 705.002,620.05C710.475,614.5 716.216,608.446 717.555,600.747C718.306,596.434 717.579,592.006 717.778,587.632C718.024,582.212 719.681,576.974 721.1,571.739C724.003,561.024 725.949,550.073 726.915,539.014C727.511,532.189 733.405,526.697 736.508,520.598C742.366,509.084 748.352,497.092 748.794,484.167C748.941,479.844 747.515,474.619 743.24,474.145Z" style="fill:rgb(47,46,65);fill-rule:nonzero;"/>
    </g>
    <g transform="matrix(1,0,0,1,-5.73412,-91)">
        <path d="M743.24,474.145C739.725,473.755 735.82,473.466 733.004,475.616C731.51,476.937 730.315,478.564 729.502,480.385C726.794,485.468 724.125,490.647 722.762,496.248C721.606,501 721.415,505.97 719.983,510.645C717.328,519.319 710.525,526.639 709.747,535.681C709.4,539.727 710.077,544.464 707.125,547.236C706.396,547.849 705.618,548.401 704.798,548.886C702.752,550.257 701.015,552.042 699.702,554.127C698.597,555.882 697.746,557.899 696.082,559.132C693.449,561.084 689.077,560.885 687.779,563.904C686.445,567.007 689.83,570.46 689.046,573.746C688.408,576.423 685.423,577.65 683.368,579.469C680.735,581.799 679.531,585.315 678.434,588.665C669.673,590.323 660.612,588.063 653.655,582.486C657.27,591.388 657.348,601.214 657.505,610.829C657.556,613.948 657.459,617.448 655.232,619.621C665.541,619.841 675.595,622.634 685.655,624.908C690.052,625.902 694.825,626.764 698.925,624.884C701.226,623.652 703.285,622.014 705.002,620.05C710.475,614.5 716.216,608.446 717.555,600.747C718.306,596.434 717.579,592.006 717.778,587.632C718.024,582.212 719.681,576.974 721.1,571.739C724.003,561.024 725.949,550.073 726.915,539.014C727.511,532.189 733.405,526.697 736.508,520.598C742.366,509.084 748.352,497.092 748.794,484.167C748.941,479.844 747.515,474.619 743.24,474.145Z" style="fill-opacity:0.1;fill-rule:nonzero;"/>
    </g>
    <g transform="matrix(1,0,0,1,-5.73412,-91)">
        <path d="M731.112,681.643C720.024,676.368 711.911,666.53 702.945,658.112C685.829,642.04 664.899,630.663 646.903,615.595C634.975,605.607 624.306,593.977 611.199,585.615C599.654,578.265 586.566,573.679 572.959,572.216C571.4,571.949 569.801,572.029 568.276,572.45C566.557,573.21 565.059,574.395 563.923,575.893C558.116,582.446 552.955,589.544 548.51,597.088C525.701,635.809 493.301,668.366 466.458,704.378C464.69,706.124 464.55,708.967 466.138,710.879L471.598,721.579C474.653,727.566 479.548,734.54 486.136,733.351C489.146,732.807 491.544,730.592 493.761,728.473L518.274,705.041L543.974,680.474C559.032,666.08 574.348,651.351 584.164,632.939C591.836,646.245 605.447,654.953 614.786,667.134C618.338,671.767 621.24,676.862 624.411,681.767C629.494,689.629 635.275,697.008 641.046,704.375L670.526,742.003C674.546,747.135 678.678,752.369 684.176,755.85C691.158,760.27 699.65,761.435 707.868,762.171C718.943,763.162 730.062,763.564 741.179,763.375C749.655,763.23 758.396,762.674 766.002,758.91C773.607,755.146 779.855,747.418 779.46,738.904C779.254,734.476 777.329,730.323 775.211,726.436C764.68,707.115 750.918,691.066 731.112,681.643Z" style="fill:rgb(47,46,65);fill-rule:nonzero;"/>
    </g>
    <ellipse cx="753.489" cy="400.025" rx="9.961" ry="10.015" style="fill:rgb(47,46,65);"/>
    <g transform="matrix(1,0,0,1,-5.73412,-91)">
        <path d="M757.021,483.499C759.449,487.787 759.451,493.124 758.115,497.871C756.779,502.618 754.227,506.913 751.704,511.144C749.22,515.308 746.708,519.51 743.376,523.025C758.75,523.761 773.655,517.731 787.223,510.423C798.138,504.545 809.03,497.288 814.855,486.301C811.449,487.325 807.694,486.315 804.678,484.42C801.75,482.379 799.124,479.934 796.88,477.157L789.162,468.474C787.349,466.583 785.756,464.493 784.415,462.243C782.744,459.165 782.034,455.656 782.377,452.171C779.31,455.38 775.883,458.224 772.163,460.646C766.65,464.234 760.573,466.837 755.048,470.404C753.089,471.669 748.733,473.703 749.854,476.264C750.948,478.761 755.468,480.756 757.021,483.499Z" style="fill:rgb(251,190,190);fill-rule:nonzero;"/>
    </g>
    <g transform="matrix(1,0,0,1,-5.73412,-91)">
        <path d="M757.021,483.499C759.449,487.787 759.451,493.124 758.115,497.871C756.779,502.618 754.227,506.913 751.704,511.144C749.22,515.308 746.708,519.51 743.376,523.025C758.75,523.761 773.655,517.731 787.223,510.423C798.138,504.545 809.03,497.288 814.855,486.301C811.449,487.325 807.694,486.315 804.678,484.42C801.75,482.379 799.124,479.934 796.88,477.157L789.162,468.474C787.349,466.583 785.756,464.493 784.415,462.243C782.744,459.165 782.034,455.656 782.377,452.171C779.31,455.38 775.883,458.224 772.163,460.646C766.65,464.234 760.573,466.837 755.048,470.404C753.089,471.669 748.733,473.703 749.854,476.264C750.948,478.761 755.468,480.756 757.021,483.499Z" style="fill-opacity:0.1;fill-rule:nonzero;"/>
    </g>
    <g transform="matrix(1,0,0,1,-5.73412,-91)">
        <path d="M757.231,485.015C754.342,489.874 753.722,495.611 757.231,500.039C757.668,500.59 759.291,504.009 759.99,504.041C760.668,503.985 761.298,503.666 761.745,503.153C765.479,499.74 768.214,495.387 771.495,491.531C774.775,487.676 778.912,484.162 783.899,483.385C789.918,482.448 795.729,485.637 800.995,488.714C803.184,489.992 805.454,491.347 806.832,493.482C807.941,495.486 808.595,497.711 808.748,499.996C810.568,513.702 810.527,527.581 810.484,541.408C810.453,551.403 810.415,561.469 808.525,571.282C807.548,576.354 806.08,581.332 805.386,586.451C804.876,590.968 804.669,595.515 804.767,600.061L804.752,619.09C804.625,622.585 804.873,626.083 805.49,629.525C806.394,633.695 808.367,637.544 809.686,641.601C811.046,646.263 811.976,651.041 812.466,655.873L815.07,675.578C815.891,681.784 816.497,688.573 812.744,693.568C811.048,695.827 808.818,697.635 807.098,699.875C800.656,708.264 802.724,720.233 800.036,730.482C797.915,737.986 793.556,744.668 787.543,749.633C782.939,753.544 776.994,756.621 771.068,755.521C763.066,754.035 758.261,745.693 756.079,737.811C753.898,729.929 753.103,721.349 748.376,714.69C744.517,709.253 738.538,705.833 733.132,701.952C727.725,698.07 722.442,693.067 721.265,686.493C720.751,683.621 721.071,680.664 720.766,677.763C719.891,670.285 714.995,663.856 708.02,661.024C703.924,659.432 698.866,658.863 696.56,655.105C702.515,651.749 706.468,645.547 708.55,639.01C710.633,632.474 711.057,625.537 711.467,618.686L712.835,595.788C713.446,585.555 713.723,575.413 718.23,566.217C720.245,562.106 722.752,558.258 724.849,554.189C727.623,548.48 729.992,542.583 731.938,536.541C735.205,527.159 738.472,517.774 741.385,508.274C742.772,503.747 744.106,499.134 746.579,495.103C749.052,491.071 752.601,485.886 757.231,485.015Z" style="fill:rgb(255,99,99);fill-rule:nonzero;"/>
    </g>
    <g transform="matrix(1,0,0,1,-5.73412,-91)">
        <path d="M706.384,633.777L712.44,633.995L713.731,624.838C713.901,623.007 714.333,621.209 715.014,619.5C716.013,617.693 717.179,615.984 718.497,614.396C724.461,605.971 724.026,594.784 725.504,584.55C727.474,570.901 733.176,558.122 738.816,545.55L750.578,519.333C752.924,514.883 754.046,509.889 753.83,504.863C753.934,500.81 755.135,486.064 755.239,482.011C755.278,480.511 751.932,481.344 751.255,480.008C749.78,477.097 747.762,484.991 745.007,486.722C742.252,488.454 740.732,491.591 739.562,494.639C737.027,501.243 735.478,508.188 733.116,514.857C730.754,521.525 727.45,528.077 722.136,532.72C719.721,534.83 716.939,536.503 714.658,538.759C707.341,545.995 706.628,557.422 706.371,567.739C706.218,573.872 705.032,633.777 706.384,633.777Z" style="fill:rgb(47,46,65);fill-rule:nonzero;"/>
    </g>
    <g transform="matrix(1,0,0,1,-5.73412,-91)">
        <path d="M793.612,474.083C787.727,476.397 784.5,482.779 782.846,488.911C781.192,495.043 780.519,501.579 777.358,507.081C769.969,519.941 751.129,523.689 745.915,537.586C744.21,542.133 744.283,547.122 743.824,551.96C742.878,561.918 739.604,571.538 738.637,581.493C737.887,589.206 738.534,596.979 739.181,604.701L745.766,683.236C746.717,694.58 746.693,706.766 743.794,717.77C750.46,719.071 757.392,717.33 763.577,714.51C769.762,711.691 775.407,707.819 781.361,704.535C791.597,698.887 802.886,694.886 811.851,687.363C813.474,686.099 814.864,684.563 815.959,682.822C817.755,679.717 817.903,675.961 818.757,672.473C819.533,669.691 820.519,666.971 821.709,664.339C824.99,656.425 827.849,648.342 830.274,640.125C831.94,634.672 833.256,629.118 834.213,623.498C834.932,619.021 835.32,614.499 835.707,609.981C836.185,602.908 837.59,595.928 839.888,589.222C845.615,573.229 848.858,556.452 849.504,539.476C849.698,537.024 849.531,534.557 849.009,532.153C848.229,529.172 846.469,526.566 845.026,523.847C842.29,518.692 840.646,513.02 838.064,507.786C832.228,495.958 821.923,486.991 811.127,479.476C805.826,475.785 799.618,471.721 793.612,474.083Z" style="fill:rgb(47,46,65);fill-rule:nonzero;"/>
    </g>
    <g transform="matrix(1,0,0,1,-5.73412,-91)">
        <path d="M655.948,602.202C651.391,599.549 646.836,596.691 643.406,592.674C641.763,590.749 640.407,588.588 638.737,586.687C634.673,582.063 628.915,579.196 622.962,577.697C617.009,576.198 610.819,575.97 604.682,575.919C600.577,575.884 596.37,575.943 592.527,577.394C588.684,578.845 585.218,581.974 584.475,586.034C583.581,590.919 586.773,595.679 590.605,598.812C594.17,601.722 598.366,603.759 602.857,604.76C606.521,605.401 610.219,605.835 613.932,606.057C635.736,608.34 655.188,620.208 674.295,631.014C691.075,640.504 708.182,649.377 725.616,657.633C726.307,652.411 726.595,647.145 726.476,641.879C726.387,637.947 726.193,631.953 722.479,629.644C718.151,626.954 711.026,626.336 706.144,624.736C694.91,621.053 683.937,616.614 673.302,611.451C667.405,608.587 661.62,605.505 655.948,602.202Z" style="fill:rgb(251,190,190);fill-rule:nonzero;"/>
    </g>
    <ellipse cx="745.521" cy="348.946" rx="38.846" ry="39.06" style="fill:rgb(251,190,190);"/>
    <g transform="matrix(1,0,0,1,-5.73412,-91)">
        <path d="M804.718,518.368C801.248,522.413 799.511,527.624 797.18,532.425C792.383,542.302 784.86,550.781 781.093,561.1C777.118,571.986 777.251,584.935 769.46,593.486C768.105,594.972 766.47,596.407 766.078,598.385C765.846,599.559 766.087,600.815 765.683,601.941C764.566,605.047 759.481,605.204 758.532,608.366C758.254,609.291 758.411,610.316 758.067,611.218C757.287,613.264 754.586,613.576 752.781,614.801C749.01,617.359 749.77,623.306 747.08,626.993C744.951,629.91 740.937,630.887 737.373,630.393C733.808,629.898 730.543,628.192 727.297,626.631C726.182,626.003 724.947,625.615 723.673,625.493C722.168,625.544 720.712,626.042 719.49,626.921C712.314,631.484 708.945,640.521 708.995,649.058C709.045,657.594 711.978,665.819 714.982,673.804C715.392,675.151 716.065,676.404 716.962,677.49C719.341,680.006 723.484,679.6 726.644,678.2C729.803,676.801 732.673,674.599 736.071,673.983C742.082,672.894 747.957,677.025 754.055,676.685C758.523,676.436 762.477,673.838 766.189,671.325C772.113,667.314 778.147,663.203 782.503,657.511C785.171,654.026 787.124,650.053 789.45,646.328C792.44,641.758 795.717,637.382 799.261,633.226L821.66,605.808C827.042,599.949 830.748,592.748 832.389,584.963C834.518,577.656 836.662,570.265 837.031,562.659C837.334,556.399 836.425,550.148 835.404,543.965C834.399,537.878 833.254,531.724 830.581,526.171C825.714,516.064 813.866,507.7 804.718,518.368Z" style="fill:rgb(47,46,65);fill-rule:nonzero;"/>
    </g>
    <circle cx="812.024" cy="264.226" r="49.023" style="fill:rgb(47,46,65);"/>
    <g transform="matrix(1,0,0,1,-5.73412,-91)">
        <path d="M860.043,395.821C851.687,401.86 841.635,405.113 831.325,405.113C809.7,405.113 790.51,390.805 784.338,370.079C787.407,394.482 808.387,412.989 832.981,412.989C859.876,412.989 882.007,390.858 882.007,363.963C882.007,359.226 881.321,354.515 879.97,349.975C882.203,367.726 874.546,385.344 860.043,395.821Z" style="fill:rgb(47,46,65);fill-rule:nonzero;"/>
    </g>
    <circle cx="771.988" cy="336.944" r="35.95" style="fill:rgb(47,46,65);"/>
    <ellipse cx="741.757" cy="323.463" rx="31.865" ry="24.92" style="fill:rgb(47,46,65);"/>
    <g transform="matrix(0.775853,-0.630913,0.630913,0.775853,-122.623,486.99)">
        <ellipse cx="755" cy="453.5" rx="5" ry="7.5" style="fill:rgb(251,190,190);"/>
    </g>
    <g transform="matrix(1,0,0,1,-5.73412,-91)">
        <path d="M720.011,771.573C720.011,788.99 709.658,795.071 696.886,795.071C696.59,795.071 696.294,795.067 696,795.06C695.408,795.048 694.821,795.02 694.242,794.979C682.715,794.164 673.76,787.77 673.76,771.573C673.76,754.814 695.177,733.664 696.79,732.095L696.792,732.093C696.854,732.032 696.886,732.002 696.886,732.002C696.886,732.002 720.011,754.159 720.011,771.573Z" style="fill:rgb(255,99,99);fill-rule:nonzero;"/>
    </g>
    <g transform="matrix(1,0,0,1,-5.73412,-91)">
        <path d="M696.043,792.406L704.501,780.589L696.021,793.704L696,795.06C695.408,795.048 694.821,795.02 694.242,794.979L695.153,777.556L695.147,777.42L695.162,777.397L695.249,775.749L686.748,762.602L695.274,774.515L695.296,774.864L695.983,761.7L688.706,748.114L696.073,759.39L696.79,732.095L696.792,732.002L696.792,732.093L696.673,753.616L703.918,745.083L696.643,755.47L696.451,767.257L703.218,755.944L696.424,768.991L696.317,775.545L706.136,759.799L696.279,777.831L696.043,792.406Z" style="fill:rgb(63,61,86);fill-rule:nonzero;"/>
    </g>
    <g transform="matrix(0.683619,0,0,0.683619,242.54,19.9452)">
        <circle cx="428.505" cy="500.599" r="86" style="fill-opacity:0.1;"/>
    </g>
    <g transform="matrix(0.683619,0,0,0.683619,210.41,-15.9757)">
        <path d="M431.765,425.424L431.765,425.424C398.986,436.421 362.791,420.513 348.727,388.929L255.508,179.575C250.362,168.018 247.702,155.506 247.702,142.855C247.702,104.162 272.579,69.576 309.263,57.269L309.263,57.269C318.518,54.164 328.215,52.581 337.977,52.581C380.088,52.581 416.877,82.047 426.072,123.142L476.114,346.781C483.618,380.316 464.344,414.494 431.765,425.424Z" style="fill-opacity:0.1;fill-rule:nonzero;"/>
    </g>
    <g transform="matrix(0.683619,0,0,0.683619,242.54,19.9452)">
        <circle cx="425.325" cy="491.118" r="69" style="fill:rgb(255,99,99);"/>
    </g>
    <g transform="matrix(0.683619,0,0,0.683619,210.41,-15.9757)">
        <path d="M423.57,400.749L423.57,400.749C393.495,410.839 360.285,396.243 347.381,367.264L261.85,175.177C257.128,164.572 254.688,153.093 254.688,141.485C254.688,105.983 277.513,74.25 311.171,62.957L311.171,62.957C319.663,60.108 328.56,58.656 337.517,58.656C376.155,58.656 409.91,85.692 418.347,123.398L464.262,328.592C471.147,359.361 453.462,390.72 423.57,400.749Z" style="fill:rgb(255,99,99);fill-rule:nonzero;"/>
    </g>
    <defs>
        <linearGradient id="_Linear1" x1="0" y1="0" x2="1" y2="0" gradientUnits="userSpaceOnUse" gradientTransform="matrix(3.15721e-15,-51.5611,51.5611,3.15721e-15,643.17,665.832)"><stop offset="0" style="stop-color:rgb(128,128,128);stop-opacity:0.25"/><stop offset="0.54" style="stop-color:rgb(128,128,128);stop-opacity:0.12"/><stop offset="1" style="stop-color:rgb(128,128,128);stop-opacity:0.1"/></linearGradient>
    </defs>
</svg>
