<?xml version="1.0" encoding="UTF-8" standalone="no"?>
<!DOCTYPE svg PUBLIC "-//W3C//DTD SVG 1.1//EN" "http://www.w3.org/Graphics/SVG/1.1/DTD/svg11.dtd">
<svg width="100%" height="100%" viewBox="0 0 1135 710" version="1.1" xmlns="http://www.w3.org/2000/svg" xmlns:xlink="http://www.w3.org/1999/xlink" xml:space="preserve" xmlns:serif="http://www.serif.com/" style="fill-rule:evenodd;clip-rule:evenodd;stroke-linejoin:round;stroke-miterlimit:2;">
    <g transform="matrix(0.862316,0,0,0.862316,135.18,-1.83814e-14)">
        <g transform="matrix(1.37332,0,0,1.37332,-341.993,-143.861)">
            <path d="M1101,511.441C765.078,384.147 431.028,380.878 99,511.441L99,38.441L1101,38.441L1101,511.441Z" style="fill:rgb(63,61,86);fill-rule:nonzero;"/>
        </g>
        <rect x="36" y="30" width="197" height="9" style="fill:rgb(208,205,225);"/>
        <rect x="36" y="53" width="197" height="9" style="fill:rgb(208,205,225);"/>
        <rect x="36" y="76" width="197" height="9" style="fill:rgb(208,205,225);"/>
        <rect x="69" y="114" width="20" height="20" style="fill:rgb(208,205,225);"/>
        <rect x="125" y="114" width="20" height="20" style="fill:rgb(255,99,99);"/>
        <rect x="181" y="114" width="20" height="20" style="fill:rgb(255,101,132);"/>
        <rect x="51" y="189" width="168" height="28.877" style="fill:rgb(208,205,225);"/>
        <rect x="51" y="233.311" width="168" height="28.877" style="fill:rgb(255,99,99);"/>
        <rect x="51" y="277.623" width="168" height="28.877" style="fill:rgb(255,101,132);"/>
        <rect x="51" y="189" width="69.5" height="28.877" style="fill-opacity:0.15;"/>
        <rect x="51" y="233.311" width="22.5" height="28.877" style="fill-opacity:0.15;"/>
        <rect x="51" y="277.623" width="112" height="28.877" style="fill-opacity:0.15;"/>
        <g transform="matrix(1,0,0,1,-99,-38.4407)">
            <path d="M591,61.441L591,391.441C681.516,391.441 756,316.957 756,226.441C756,135.924 681.516,61.441 591,61.441Z" style="fill:rgb(208,205,225);fill-rule:nonzero;"/>
        </g>
        <g transform="matrix(1,0,0,1,-99,-38.4407)">
            <path d="M580,68.694C522.739,68.682 470.164,101.12 444.49,152.303L580,232.517L580,68.694Z" style="fill:rgb(208,205,225);fill-rule:nonzero;"/>
        </g>
        <g transform="matrix(1,0,0,1,-99,-38.4407)">
            <path d="M433.49,154.454C421.989,177.404 416,202.724 416,228.395C416,318.919 490.476,393.416 581,393.441L581,241.771L433.49,154.454Z" style="fill:rgb(255,99,99);fill-rule:nonzero;"/>
        </g>
        <rect x="768" y="109" width="101" height="9" style="fill:rgb(208,205,225);"/>
        <rect x="735" y="103" width="20" height="20" style="fill:rgb(255,99,99);"/>
        <rect x="768" y="139" width="101" height="9" style="fill:rgb(208,205,225);"/>
        <rect x="735" y="133" width="20" height="20" style="fill:rgb(255,99,99);"/>
        <rect x="768" y="169" width="101" height="9" style="fill:rgb(208,205,225);"/>
        <rect x="735" y="163" width="20" height="20" style="fill:rgb(255,99,99);"/>
        <path d="M438.707,250.707L437.293,249.293L542.586,144L726,144L726,146L543.414,146L438.707,250.707Z" style="fill:rgb(47,46,65);fill-rule:nonzero;"/>
        <g transform="matrix(1.37332,0,0,1.37332,-341.993,-143.861)">
            <path d="M1101,770.441L99,770.441L99,543.441C421,417.971 755,417.971 1101,543.441L1101,770.441Z" style="fill:rgb(63,61,86);fill-rule:nonzero;"/>
        </g>
        <g transform="matrix(1,0,0,1,-99,-38.4407)">
            <path d="M510.803,643.322L519.94,671.603C519.94,671.603 511.673,698.145 515.589,727.731C519.505,757.318 517.329,758.189 517.329,758.189C517.329,758.189 478.203,755.936 482.119,767.684C486.035,779.432 524.291,772.547 524.291,772.547C524.291,772.547 531.638,770.569 535.119,749.684C538.6,728.799 547.351,688.572 547.351,688.572L539.122,650.597L510.803,643.322Z" style="fill:rgb(255,184,184);fill-rule:nonzero;"/>
        </g>
        <g transform="matrix(1,0,0,1,-99,-38.4407)">
            <path d="M513.849,585.453C513.849,585.453 497.315,591.545 497.315,608.079C497.315,624.612 503.406,647.238 507.322,648.543C511.238,649.848 537.344,667.687 542.13,655.07C546.916,642.452 513.849,585.453 513.849,585.453Z" style="fill:rgb(208,205,225);fill-rule:nonzero;"/>
        </g>
        <path d="M553.211,742.808L588.019,741.503L614.56,737.587L606.728,763.693L542.333,765.433L553.211,742.808Z" style="fill:rgb(255,184,184);fill-rule:nonzero;"/>
        <g transform="matrix(1,0,0,1,-99,-38.4407)">
            <path d="M702.247,784.73C702.247,784.73 701.812,775.158 697.896,775.593C693.981,776.028 696.591,772.112 700.072,771.242C703.553,770.371 713.56,766.02 713.56,766.02L753.154,768.631C753.154,768.631 778.825,791.256 768.383,803.439C757.94,815.622 730.964,804.744 730.964,804.744L701.812,805.18C701.812,805.18 692.24,789.516 702.247,784.73Z" style="fill:rgb(47,46,65);fill-rule:nonzero;"/>
        </g>
        <path d="M618.911,712.786L631.529,771.96L657.635,766.739L642.842,692.772L627.178,684.505L618.911,712.786Z" style="fill:rgb(255,184,184);fill-rule:nonzero;"/>
        <g transform="matrix(1,0,0,1,-99,-38.4407)">
            <path d="M567.801,743.83C567.801,743.83 494.704,776.898 525.596,810.401C525.596,810.401 525.596,826.064 558.229,823.019C590.861,819.973 653.951,814.317 656.997,816.057C660.043,817.797 669.615,781.684 661.348,779.944C653.081,778.203 643.074,776.028 643.074,776.028C643.074,776.028 651.776,774.722 651.776,767.326C651.776,767.326 676.576,765.585 683.973,749.922C691.37,734.258 698.331,722.51 698.331,722.51L715.3,766.02C715.3,766.02 734.88,729.907 749.673,746.006C749.673,746.006 733.14,642.017 720.522,632.444C707.904,622.872 699.202,619.826 687.454,628.528C675.706,637.23 664.829,659.421 664.829,659.421L567.801,743.83Z" style="fill:rgb(47,46,65);fill-rule:nonzero;"/>
        </g>
        <g transform="matrix(1,0,0,1,-99,-38.4407)">
            <path d="M742.277,792.562C739.235,794.856 736.329,797.326 733.575,799.958C730.094,803.439 725.308,801.699 724.873,799.958C724.438,798.218 716.606,801.264 715.736,813.882C714.865,826.499 709.644,837.812 723.567,841.728C737.491,845.644 737.056,856.957 737.056,856.957C748.068,862.24 760.72,863.021 772.299,859.132C791.878,852.606 784.917,845.644 784.917,845.644L758.811,802.569C758.811,802.569 751.849,789.516 742.277,792.562Z" style="fill:rgb(47,46,65);fill-rule:nonzero;"/>
        </g>
        <g transform="matrix(1,0,0,1,-99,-38.4407)">
            <path d="M670.05,576.751C670.05,576.751 711.82,591.11 716.171,594.155C720.522,597.201 740.101,611.559 730.529,618.956C720.957,626.353 713.125,631.139 694.416,625.483C675.706,619.826 654.821,602.422 654.821,602.422L670.05,576.751Z" style="fill:rgb(255,184,184);fill-rule:nonzero;"/>
        </g>
        <g transform="matrix(1,0,0,1,-99,-38.4407)">
            <path d="M628.28,557.607C628.28,557.607 644.814,554.561 656.562,561.088C668.31,567.614 678.317,580.667 678.317,580.667C678.317,580.667 667.439,603.728 659.607,607.208C651.776,610.689 637.417,593.285 637.417,593.285L628.28,557.607Z" style="fill:rgb(208,205,225);fill-rule:nonzero;"/>
        </g>
        <g transform="matrix(1,0,0,1,-99,-38.4407)">
            <path d="M552.137,544.989C552.137,544.989 552.573,561.958 550.832,563.698C549.092,565.439 571.717,616.781 596.518,594.155C621.319,571.53 602.174,562.393 602.174,562.393C602.174,562.393 593.037,545.424 593.472,543.684C593.907,541.943 553.008,543.684 553.008,543.684L552.137,544.989Z" style="fill:rgb(255,184,184);fill-rule:nonzero;"/>
        </g>
        <g transform="matrix(1,0,0,1,-99,-38.4407)">
            <path d="M552.137,544.989C552.137,544.989 552.573,561.958 550.832,563.698C549.092,565.439 571.717,616.781 596.518,594.155C621.319,571.53 602.174,562.393 602.174,562.393C602.174,562.393 593.037,545.424 593.472,543.684C593.907,541.943 553.008,543.684 553.008,543.684L552.137,544.989Z" style="fill-opacity:0.1;fill-rule:nonzero;"/>
        </g>
        <g transform="matrix(1,0,0,1,-99,-38.4407)">
            <path d="M559.099,577.622C559.099,577.622 575.633,588.934 582.595,586.324C589.556,583.713 598.258,572.4 599.128,571.53C599.999,570.66 644.379,659.856 644.379,659.856C644.379,659.856 637.852,692.488 620.448,702.06C603.044,711.633 603.262,719.247 601.086,725.773C598.911,732.3 570.847,705.106 570.847,705.106L553.008,629.399L553.008,583.278L559.099,577.622Z" style="fill:rgb(208,205,225);fill-rule:nonzero;"/>
        </g>
        <g transform="matrix(1,0,0,1,-99,-38.4407)">
            <path d="M551.92,557.389C551.92,557.389 546.481,556.302 540.825,561.088C535.168,565.874 508.627,583.713 509.933,585.453C511.238,587.194 522.986,611.995 525.596,622.002C528.207,632.009 532.123,633.314 532.123,633.314C532.123,633.314 541.26,639.841 539.955,644.627C538.649,649.413 532.993,714.678 540.825,729.037C548.657,743.395 547.351,756.013 545.176,759.494C543,762.975 566.061,749.487 566.061,749.487C566.061,749.487 600.434,721.64 603.044,713.373C604.733,707.69 605.898,701.864 606.525,695.969C607.153,690.074 584.335,608.079 577.373,603.292C570.412,598.506 551.92,557.389 551.92,557.389Z" style="fill:rgb(87,90,137);fill-rule:nonzero;"/>
        </g>
        <g transform="matrix(1,0,0,1,-99,-38.4407)">
            <path d="M599.72,557.733C599.72,557.733 610.441,551.08 612.617,552.821C614.792,554.561 635.242,554.561 635.677,556.302C636.112,558.042 636.982,599.812 651.776,610.689C666.569,621.567 656.997,643.322 656.997,643.322L667.874,660.726C667.874,660.726 608.702,717.719 612.617,698.145C612.834,697.057 612.617,696.839 612.617,696.839C612.617,696.839 589.556,598.071 592.602,592.85C595.648,587.629 601.182,563.951 599.72,557.733Z" style="fill:rgb(87,90,137);fill-rule:nonzero;"/>
        </g>
        <g transform="matrix(1,0,0,1,-99,-38.4407)">
            <path d="M690.935,597.636L631.761,618.086C631.761,618.086 573.022,632.009 582.159,648.108C591.297,664.207 630.021,636.795 630.021,636.795L708.82,627.966C708.82,627.966 740.101,601.552 690.935,597.636Z" style="fill:rgb(255,184,184);fill-rule:nonzero;"/>
        </g>
        <circle cx="476.633" cy="490.449" r="32.197" style="fill:rgb(255,184,184);"/>
        <g transform="matrix(1,0,0,1,-99,-38.4407)">
            <path d="M549.992,496.891L544.036,494.726C544.036,494.726 556.489,482.272 573.815,483.355L568.942,478.482C568.942,478.482 580.854,474.151 591.683,485.521C597.375,491.498 603.962,498.524 608.068,506.438L614.446,506.438L611.784,511.762L621.101,517.087L611.538,516.13C612.444,520.727 612.132,525.481 610.633,529.919L608.468,535.875C608.468,535.875 599.804,518.549 599.804,516.383L599.804,521.798C599.804,521.798 593.849,516.925 593.849,513.676L590.6,517.466L588.976,511.51L568.942,517.466L572.191,512.593L559.738,514.217L564.611,508.262C564.611,508.262 550.534,515.3 549.992,521.256C549.451,527.212 542.412,534.792 542.412,534.792L539.163,529.378C539.163,529.378 534.29,505.013 549.992,496.891Z" style="fill:rgb(47,46,65);fill-rule:nonzero;"/>
        </g>
        <g transform="matrix(1,0,0,1,-99,-38.4407)">
            <path d="M970.067,772.394L968.067,772.355C968.841,750.117 971.213,727.964 975.167,706.067C983.815,659.187 998.196,628.398 1017.91,614.556L1019.06,616.192C973.007,648.526 970.091,771.158 970.067,772.394Z" style="fill:rgb(208,205,225);fill-rule:nonzero;"/>
        </g>
        <g transform="matrix(1,0,0,1,-99,-38.4407)">
            <path d="M995.067,771.915L993.067,771.876C993.11,769.661 994.36,717.462 1014.91,703.034L1016.06,704.671C996.338,718.517 995.077,771.383 995.067,771.915Z" style="fill:rgb(208,205,225);fill-rule:nonzero;"/>
        </g>
        <circle cx="931.436" cy="567.933" r="10" style="fill:rgb(255,99,99);"/>
        <circle cx="926.484" cy="653.933" r="10" style="fill:rgb(255,99,99);"/>
        <g transform="matrix(1,0,0,1,-99,-38.4407)">
            <path d="M990.406,622.369C992.285,634.373 987.387,645.109 987.387,645.109C987.387,645.109 979.442,636.384 977.562,624.379C975.683,612.375 980.581,601.639 980.581,601.639C980.581,601.639 988.527,610.365 990.406,622.369Z" style="fill:rgb(255,99,99);fill-rule:nonzero;"/>
        </g>
        <g transform="matrix(1,0,0,1,-99,-38.4407)">
            <path d="M1023.06,651.431C1011.57,655.373 1000.16,652.465 1000.16,652.465C1000.16,652.465 1007.38,643.166 1018.88,639.224C1030.37,635.281 1041.78,638.189 1041.78,638.189C1041.78,638.189 1034.56,647.489 1023.06,651.431Z" style="fill:rgb(208,205,225);fill-rule:nonzero;"/>
        </g>
        <g transform="matrix(1,0,0,1,-99,-38.4407)">
            <path d="M1023.46,727.684C1018.26,729.317 1012.72,729.557 1007.4,728.377C1014.29,719.603 1025.74,715.674 1036.57,718.371C1033.09,722.569 1028.57,725.781 1023.46,727.684Z" style="fill:rgb(208,205,225);fill-rule:nonzero;"/>
        </g>
        <g transform="matrix(1,0,0,1,-99,-38.4407)">
            <path d="M904.984,592.776C897.853,592.776 891.984,586.908 891.984,579.776C891.984,572.644 897.853,566.776 904.984,566.776C912.116,566.776 917.984,572.644 917.984,579.776C917.976,586.905 912.113,592.768 904.984,592.776ZM904.984,568.776C898.95,568.776 893.984,573.742 893.984,579.776C893.984,585.81 898.95,590.776 904.984,590.776C911.019,590.776 915.984,585.81 915.984,579.776C915.977,573.744 911.016,568.783 904.984,568.776Z" style="fill:rgb(208,205,225);fill-rule:nonzero;"/>
        </g>
        <circle cx="745" cy="614" r="8" style="fill:rgb(208,205,225);"/>
        <circle cx="36" cy="523" r="8" style="fill:rgb(208,205,225);"/>
        <g transform="matrix(1,0,0,1,-99,-38.4407)">
            <path d="M185,695.441L159,695.441L159,669.441L185,669.441L185,695.441ZM161,693.441L183,693.441L183,671.441L161,671.441L161,693.441Z" style="fill:rgb(208,205,225);fill-rule:nonzero;"/>
        </g>
        <g transform="matrix(1,0,0,1,-99,-38.4407)">
            <path d="M350,603.441C322.571,603.441 300,626.012 300,653.441C300,680.87 322.571,703.441 350,703.441C377.429,703.441 400,680.87 400,653.441C400,626.012 377.429,603.441 350,603.441ZM341.375,675.816L319.868,654.308L325.9,648.276L341.395,663.771L374.1,631.066L380.132,637.098L341.375,675.816Z" style="fill:rgb(255,99,99);fill-rule:nonzero;"/>
        </g>
    </g>
</svg>
