<?xml version="1.0" encoding="UTF-8" standalone="no"?>
<!DOCTYPE svg PUBLIC "-//W3C//DTD SVG 1.1//EN" "http://www.w3.org/Graphics/SVG/1.1/DTD/svg11.dtd">
<svg width="100%" height="100%" viewBox="0 0 325 500" version="1.1" xmlns="http://www.w3.org/2000/svg" xmlns:xlink="http://www.w3.org/1999/xlink" xml:space="preserve" xmlns:serif="http://www.serif.com/" style="fill-rule:evenodd;clip-rule:evenodd;stroke-linejoin:round;stroke-miterlimit:2;">
    <g transform="matrix(0.891651,0,0,0.891651,-12.4347,-16.1643)">
        <rect x="151.557" y="268" width="110" height="123" style="fill:rgb(204,204,204);"/>
        <path d="M95.557,576L39.557,576L33.557,528L101.557,528L95.557,576Z" style="fill:rgb(230,230,230);fill-rule:nonzero;"/>
        <g transform="matrix(1,0,0,1,-172.722,-161.051)">
            <path d="M380.729,702.284L378.839,728.119C378.824,728.318 378.817,728.519 378.817,728.719C378.817,733.23 382.53,736.943 387.041,736.943C387.207,736.943 387.373,736.938 387.539,736.928L400.809,736.124C403.01,735.99 404.749,734.142 404.749,731.937C404.749,731.594 404.707,731.252 404.624,730.92L397.258,701.457L380.729,702.284Z" style="fill:rgb(230,230,230);fill-rule:nonzero;"/>
        </g>
        <g transform="matrix(1,0,0,1,-172.722,-161.051)">
            <path d="M491.724,717.561C507.342,721.214 518.498,726.407 525.827,733.435C528.437,735.918 531.853,737.383 535.451,737.561C540.047,737.802 543.806,737.287 546.63,736.025L546.631,736.025C548.102,735.377 549.109,733.976 549.255,732.375C549.43,730.748 548.705,729.149 547.367,728.208L510.327,701.853L494.594,708.147L490.924,711.817C490.243,712.499 489.86,713.423 489.86,714.387C489.86,715.703 490.575,716.92 491.724,717.561L491.724,717.561Z" style="fill:rgb(230,230,230);fill-rule:nonzero;"/>
        </g>
        <g transform="matrix(1,0,0,1,-172.722,-161.051)">
            <path d="M443.662,295.746L337.789,294.766C338.055,279.345 341.643,264.202 349.485,250.652C354.636,241.752 354.525,232.067 353.283,223.907C351.368,211.315 355.822,198.432 365.721,190.416C373.283,184.282 382.834,181.121 392.563,181.535L394.619,181.621C408.213,182.186 420.619,189.647 427.49,201.39C430.929,207.565 432.317,214.676 431.451,221.691C430.78,228.292 432.386,234.961 436.142,241.693C442.621,256.476 444.025,275.392 443.662,295.746Z" style="fill:rgb(47,46,65);fill-rule:nonzero;"/>
        </g>
        <g transform="matrix(1,0,0,1,-172.722,-161.051)">
            <path d="M514.497,703.228L493.718,708.648L392.534,488.213L398.858,703.228L378.079,703.228C355.876,602.069 315.789,485.321 333.812,448.462L441.319,442.138L514.497,703.228Z" style="fill:rgb(255,99,102);fill-rule:nonzero;"/>
        </g>
        <circle cx="218.909" cy="69.685" r="28.006" style="fill:rgb(255,185,185);"/>
        <g transform="matrix(1,0,0,1,-172.722,-161.051)">
            <path d="M416.023,282.232L369.949,279.521C374.464,269.158 376.268,259.178 374.466,249.708L408.796,249.708C408.718,256.979 412.336,269.556 416.023,282.232Z" style="fill:rgb(255,185,185);fill-rule:nonzero;"/>
        </g>
        <path d="M272.211,289.217L171.028,296.445L181.417,117.115L199.034,112.146L218.909,116.663L238.784,106.725L251.432,111.243L272.211,289.217Z" style="fill:rgb(255,99,102);fill-rule:nonzero;"/>
        <g transform="matrix(1,0,0,1,-172.722,-161.051)">
            <path d="M360.914,579.458L291.802,563.649C312.353,495.5 349.376,339.597 337.425,284.039L373.562,267.777L360.914,579.458Z" style="fill:rgb(230,230,230);fill-rule:nonzero;"/>
        </g>
        <g transform="matrix(1,0,0,1,-172.722,-161.051)">
            <path d="M327.488,382.512L301.288,366.25L323.632,300.811C326.123,294.06 330.898,288.388 337.126,284.782L344.653,280.425L340.136,346.375L327.488,382.512Z" style="fill:rgb(230,230,230);fill-rule:nonzero;"/>
        </g>
        <g transform="matrix(1,0,0,1,-172.722,-161.051)">
            <path d="M505.011,564.552C483.197,577.172 428.671,584.207 404.73,575.393C402.969,513.82 399.514,339.654 410.603,265.97L450.353,282.232L446.74,331.017C427.736,372.75 482.919,518.105 505.011,564.552Z" style="fill:rgb(230,230,230);fill-rule:nonzero;"/>
        </g>
        <path d="M329.127,213.33L304.734,205.199L272.211,168.158L277.632,121.18L331.837,197.068L329.127,213.33Z" style="fill:rgb(230,230,230);fill-rule:nonzero;"/>
        <g transform="matrix(1,0,0,1,-172.722,-161.051)">
            <path d="M425.403,409.545C426.228,413.168 429.883,415.473 433.508,414.658L454.214,409.968L451.222,396.752L430.515,401.44C426.89,402.261 424.582,405.92 425.403,409.545L425.403,409.545Z" style="fill:rgb(255,185,185);fill-rule:nonzero;"/>
        </g>
        <g transform="matrix(1,0,0,1,-172.722,-161.051)">
            <path d="M416.023,223.509C400.467,217.112 385.104,216.65 369.949,222.606L363.625,200.02L421.444,200.02L416.023,223.509Z" style="fill:rgb(47,46,65);fill-rule:nonzero;"/>
        </g>
        <g transform="matrix(1,0,0,1,-172.722,-161.051)">
            <path d="M444.029,394.256L455.774,415.939C475.528,410.429 492.648,393.06 509.076,372.574L504.559,358.119L476.553,365.347L444.029,394.256Z" style="fill:rgb(230,230,230);fill-rule:nonzero;"/>
        </g>
        <g transform="matrix(1,0,0,1,-172.722,-161.051)">
            <path d="M435.447,349.537L431.833,349.537C431.833,298.426 421.31,262.808 411.054,262.808L410.151,259.194C419.348,259.194 425.211,274.018 428.511,286.455C432.984,303.314 435.447,325.717 435.447,349.537Z" style="fill:rgb(63,61,86);fill-rule:nonzero;"/>
        </g>
        <g transform="matrix(1,0,0,1,-172.722,-161.051)">
            <path d="M352.332,336.889L348.718,336.889C348.718,290.08 359.314,261.001 374.917,261.001L374.014,264.615C363.221,264.615 352.332,286.963 352.332,336.889Z" style="fill:rgb(63,61,86);fill-rule:nonzero;"/>
        </g>
        <circle cx="260.918" cy="189.389" r="9.034" style="fill:rgb(63,61,86);"/>
        <g transform="matrix(1,0,0,1,-172.722,-161.051)">
            <path d="M337.877,358.571L334.263,358.571C334.263,345.619 341.558,335.082 350.525,335.082L350.525,338.696C343.551,338.696 337.877,347.612 337.877,358.571Z" style="fill:rgb(63,61,86);fill-rule:nonzero;"/>
        </g>
        <g transform="matrix(1,0,0,1,-172.722,-161.051)">
            <path d="M366.787,358.571L363.173,358.571C363.173,347.612 357.499,338.696 350.525,338.696L350.525,335.082C359.492,335.082 366.787,345.619 366.787,358.571Z" style="fill:rgb(63,61,86);fill-rule:nonzero;"/>
        </g>
        <circle cx="192.258" cy="198.423" r="3.614" style="fill:rgb(63,61,86);"/>
        <circle cx="163.348" cy="198.423" r="3.614" style="fill:rgb(63,61,86);"/>
        <path d="M118.177,165.193L140.724,169.219L192.258,242.495L164.88,236.053L118.177,165.193Z" style="fill:rgb(255,99,102);fill-rule:nonzero;"/>
        <g transform="matrix(1,0,0,1,-172.722,-161.051)">
            <path d="M286.9,325.347C285.859,325.363 285.011,326.224 285.011,327.265C285.011,327.639 285.12,328.005 285.326,328.318L333.497,401.406C333.766,401.815 334.182,402.105 334.658,402.217L357.07,407.49C357.214,407.524 357.361,407.541 357.509,407.541C358.559,407.541 359.423,406.676 359.423,405.626C359.423,405.232 359.302,404.847 359.075,404.525L306.186,329.323C305.896,328.91 305.453,328.628 304.956,328.54L287.261,325.38C287.142,325.359 287.021,325.348 286.9,325.347Z" style="fill:rgb(63,61,86);fill-rule:nonzero;"/>
        </g>
        <g transform="matrix(1,0,0,1,-172.722,-161.051)">
            <path d="M316.949,377.604L318.288,391.09L339.414,388.992C342.863,388.65 345.521,385.715 345.521,382.25C345.521,378.533 342.462,375.474 338.745,375.474C338.522,375.474 338.298,375.485 338.076,375.507L316.949,377.604Z" style="fill:rgb(255,185,185);fill-rule:nonzero;"/>
        </g>
        <g transform="matrix(1,0,0,1,-172.722,-161.051)">
            <path d="M298.578,376.042C298.642,385.551 306.476,393.342 315.985,393.353L319.459,393.353L321.988,372.277L301.048,364.739L298.578,376.042Z" style="fill:rgb(230,230,230);fill-rule:nonzero;"/>
        </g>
        <g transform="matrix(1,0,0,1,-172.722,-161.051)">
            <path d="M197.898,671.294C212.318,690.605 242.25,692.638 242.25,692.638C242.25,692.638 248.804,663.361 234.384,644.05C219.964,624.739 190.032,622.707 190.032,622.707C190.032,622.707 183.478,651.983 197.898,671.294Z" style="fill:rgb(230,230,230);fill-rule:nonzero;"/>
        </g>
        <g transform="matrix(1,0,0,1,-172.722,-161.051)">
            <path d="M271.355,678.554C261.84,691.297 242.088,692.638 242.088,692.638C242.088,692.638 237.764,673.319 247.279,660.576C256.794,647.834 276.545,646.492 276.545,646.492C276.545,646.492 280.87,665.811 271.355,678.554Z" style="fill:rgb(230,230,230);fill-rule:nonzero;"/>
        </g>
    </g>
</svg>
